Coordinates
version=1
nRows=24
nColumns=19
inDegrees=yes

Units are S.I. units (second, meters, Newtons, ...)
If the header above contains a line with 'inDegrees', this indicates whether rotational values are in degrees (yes) or radians (no).

endheader
time	pelvis_tilt	pelvis_list	pelvis_rotation	pelvis_tx	pelvis_ty	pelvis_tz	hip_flexion_r	hip_adduction_r	hip_rotation_r	knee_angle_r	knee_angle_r_beta	ankle_angle_r	hip_flexion_l	hip_adduction_l	hip_rotation_l	knee_angle_l	knee_angle_l_beta	ankle_angle_l
     12.00666667	     -1.09280957	     -7.58359790	     -0.06120693	      2.19694409	      0.88352864	      1.07875921	     26.99827495	      9.11831575	    -10.40802927	     13.39043805	      0.23370723	      7.21932829	    -20.68053847	     -9.57344107	    -10.27585746	     65.13571923	      1.13683276	    -21.61096958
     12.01333333	     -0.16860550	     -8.01710897	     -0.83230643	      2.19633830	      0.87973878	      1.07859160	     26.67940391	      9.54529115	    -11.08360260	     16.85026593	      0.29409262	      6.48981440	    -20.52785953	     -9.65994314	    -10.47384902	     68.88744748	      1.20231277	    -22.34781299
     12.02000000	      0.05068661	     -8.11317253	     -1.83235857	      2.19550396	      0.87491360	      1.07862768	     27.28981867	      9.60679553	    -11.38167326	     20.83682217	      0.36367115	      5.90898643	    -19.47715184	     -9.34649161	    -10.66057085	     72.69318936	      1.26873550	    -23.02608309
     12.02666667	      0.87099743	     -8.45008299	     -2.77168335	      2.19463478	      0.87048240	      1.07860192	     27.09465852	      9.89366302	    -11.54771865	     24.63877814	      0.43002780	      5.50846322	    -19.14828497	     -9.43358061	    -11.23722556	     76.29543815	      1.33160660	    -23.59468459
     12.03333333	      0.91419839	     -8.37182110	     -3.87358411	      2.19347876	      0.86518031	      1.07877430	     27.85015255	      9.82534885	    -11.21078277	     28.75898726	      0.50193902	      5.46623926	    -17.77074648	     -9.05473932	    -11.59934426	     79.92824994	      1.39501113	    -23.98122080
     12.04000000	      1.55117639	     -8.56364497	     -4.84726365	      2.19223493	      0.86050758	      1.07889861	     27.76165401	     10.03427525	    -10.76877317	     32.57497250	      0.56854052	      5.87342170	    -17.07602015	     -9.11027521	    -12.19208224	     83.34768624	      1.45469155	    -24.17861301
     12.04666667	      1.60976130	     -8.41995031	     -5.87532017	      2.19072789	      0.85539796	      1.07920809	     28.30698052	     10.01320923	     -9.95726512	     36.46318676	      0.63640266	      6.75720877	    -15.52940325	     -8.86839307	    -12.57029091	     86.75747923	      1.51420366	    -24.19938552
     12.05333333	      1.80070966	     -8.40683750	     -6.71962888	      2.18906733	      0.85068275	      1.07945082	     28.50738483	     10.12739994	     -9.14146318	     40.02928457	      0.69864281	      8.07673960	    -14.03408444	     -8.93386562	    -12.88453782	     90.04765753	      1.57162811	    -24.03199155
     12.06000000	      2.54176480	     -8.70887840	     -7.25359309	      2.18740518	      0.84701484	      1.07955537	     27.78125862	     10.45759868	     -8.51525406	     43.10128350	      0.75225931	      9.82250801	    -13.10948679	     -9.47688555	    -13.10296766	     93.09640496	      1.62483879	    -23.71529327
     12.06666667	      2.17730375	     -8.20984678	     -8.00065190	      2.18524796	      0.84263287	      1.07991912	     28.34185573	     10.25350992	     -7.30199163	     46.28710582	      0.80786240	     11.82751358	    -10.56121706	     -9.10497447	    -12.93975575	     96.13626446	      1.67789435	    -23.13657027
     12.07333333	      2.23537367	     -8.10404423	     -8.32214221	      2.18321602	      0.83930805	      1.08002419	     28.02546472	     10.26228620	     -6.53809654	     48.80750404	      0.85185165	     14.01750362	     -8.41299948	     -9.33129195	    -12.56505145	     98.95105147	      1.72702165	    -22.48161334
     12.08000000	      2.81395944	     -8.22725158	     -8.44966232	      2.18113505	      0.83719340	      1.08007320	     26.76854795	     10.42144268	     -5.86597296	     50.73493444	      0.88549165	     16.33399394	     -6.80784645	     -9.84819193	    -12.13263774	    101.43713368	      1.77041197	    -21.74515185
     12.08666667	      2.44313088	     -7.80713235	     -8.38045645	      2.17884872	      0.83468854	      1.07984658	     26.50138808	     10.01402734	     -5.32083863	     52.51412759	      0.91654443	     18.49599912	     -3.70044407	     -9.70706113	    -11.06397106	    103.86789708	      1.81283679	    -20.85961950
     12.09333333	      2.88074597	     -7.81747408	     -8.32359496	      2.17676362	      0.83370497	      1.07983709	     24.88234061	     10.06002333	     -4.65370013	     53.55845845	      0.93477144	     20.70596342	     -1.70546452	    -10.07622457	    -10.32338619	    105.78839056	      1.84635573	    -19.89681938
     12.10000000	      2.57322141	     -7.47367924	     -7.80079669	      2.17453212	      0.83259949	      1.07931834	     23.96621468	      9.53315442	     -4.58841868	     54.31079478	      0.94790219	     22.51104164	      1.57397088	     -9.93349741	     -8.78622951	    107.62348663	      1.87838419	    -18.82677902
     12.10666667	      2.37013843	     -7.20240105	     -7.42933841	      2.17252915	      0.83212882	      1.07906998	     22.66546255	      9.17748843	     -4.32778668	     54.62712037	      0.95342311	     24.20629479	      4.58924376	     -9.85735736	     -7.53176379	    109.02861026	      1.90290823	    -17.64032754
     12.11333333	      2.44613840	     -7.01738169	     -6.85225423	      2.17074756	      0.83256354	      1.07870972	     20.78601518	      8.81292893	     -4.29791979	     54.45032450	      0.95033744	     25.63432074	      7.28325956	     -9.79198918	     -6.17537995	    110.01528940	      1.92012903	    -16.41170530
     12.12000000	      2.39578956	     -6.79041881	     -6.28054356	      2.16917243	      0.83341504	      1.07846525	     18.85805594	      8.43507000	     -4.30536869	     53.92652877	      0.94119548	     26.77153956	     10.05596227	     -9.63771006	     -4.88479162	    110.62267633	      1.93072993	    -15.08352002
     12.12666667	      2.28993066	     -6.54926993	     -5.71541752	      2.16782409	      0.83472213	      1.07830768	     16.82643643	      8.07668866	     -4.32830303	     53.08442919	      0.92649807	     27.59609308	     12.79244148	     -9.42191529	     -3.68543034	    110.83610644	      1.93445499	    -13.70458416
     12.13333333	      2.16252263	     -6.29559787	     -5.16773993	      2.16678191	      0.83654875	      1.07831022	     14.65901243	      7.72768266	     -4.39657244	     51.93314225	      0.90640432	     28.10090016	     15.41022513	     -9.19960642	     -2.65052508	    110.63775819	      1.93099316	    -12.25190136
     12.14000000	      2.06207683	     -6.04360104	     -4.66115503	      2.16607769	      0.83890621	      1.07839634	     12.31969721	      7.41126212	     -4.45459342	     50.49372199	      0.88128170	     28.26361883	     17.81690847	     -8.97947144	     -1.80466839	    110.02461182	      1.92029173	    -10.75994913
     12.14666667	      2.03037699	     -5.79562489	     -4.19842027	      2.16570815	      0.84183852	      1.07861337	      9.78095964	      7.11880348	     -4.52041710	     48.78862720	      0.85152218	     28.05152961	     19.94956312	     -8.80757828	     -1.18215631	    109.00320523	      1.90246483	     -9.24612848
     12.15333333	      1.97109280	     -5.52388276	     -3.81948517	      2.16566991	      0.84515268	      1.07892685	      7.19606578	      6.82908967	     -4.54371760	     46.89814649	      0.81852707	     27.48290424	     21.89390842	     -8.68551922	     -0.82605318	    107.59688375	      1.87791989	     -7.62563402
     12.16000000	      2.36708274	     -5.18007504	     -3.55214264	      2.16618214	      0.84947939	      1.07934432	      3.97066421	      6.44481237	     -4.47373007	     44.69795037	      0.78012640	     26.50549299	     23.01516205	     -8.59537284	     -0.89616229	    105.69837290	      1.84478462	     -6.12077942
